# xmcd
# 
# Track frame offsets:
#     150
#     16020
#     28355
#     47990
#     61051
#     74118
#     84171
#     104421
#     119823
#     142350
#     158319
#     167843
#     184110
#     193584
#     217491
# 
# Disc length: 3171
# 
# Revision: 1
# Processed by: cddbd v1.5.2PL0 Copyright (c) Steve Scherf et al.
# Submitted via: fre:ac v1.0.27
# 
DISCID=e40c610f
DTITLE=Country Trail Band - Breng Het Licht
DYEAR=2007
DGENRE=General Religious - Nederlandstalig
TTITLE0=Astrid Langeland - Amy Langeland - Zeg Het Aan Jezus
TTITLE1=Christelijk Jong Mannenkoor "Soli Deo Gloria" - 't Scheepke Onder Jezus' Hoede
TTITLE2=Helen Van Dalen - Daniëlle Bruin - Ik Wil Zingen Van Mijn Heiland
TTITLE3=Hans Steeds - Wim Pols - Zijt Gij Rein Door Het Bloed
TTITLE4=Els Van Herwijnen - Dierb're Heer Vat Mijn Hand
TTITLE5=Wim Pols - Zing Van Jezus' Wond're Liefde
TTITLE6=Arjan and Efi Knevel - Omdat Hij Leeft
TTITLE7=Wim Pols - Hans Steeds - Ruud Van De Meeberg - Zingen Wij Van Zijn Liefde Nog Eens
TTITLE8=Thecla Rutting - In Het Kruis Wil Ik Altijd Roemen
TTITLE9=Wim Pols - Heer, Wat Een Voorrecht
TTITLE10=Inge Den Hollander - Wim Van Der Bent - Dank U Voor Deze Nieuwe Morgen
TTITLE11=Astrid Langeland - Ik Heb Liever Mijn Jezus
TTITLE12=Theo Van Teijlingen - Cor De Rijke - Geef Me Die Aloude Boodschap
TTITLE13=Joke Bliek - Fluistering Der Hoop
TTITLE14=Hans Steeds - Diana Steeds - Tobi Steeds - Nathalie Steeds - Robin Steeds - Lisa Steeds - Zijn Naam Is Hoger/Vrede Zij U/Jezus, Naam Boven Alle Naam
EXTD=
EXTT0=
EXTT1=
EXTT2=
EXTT3=
EXTT4=
EXTT5=
EXTT6=
EXTT7=
EXTT8=
EXTT9=
EXTT10=
EXTT11=
EXTT12=
EXTT13=
EXTT14=
PLAYORDER=
